<?xml version="1.0" encoding="utf-8"?>
<!-- Generator: Adobe Illustrator 21.0.2, SVG Export Plug-In . SVG Version: 6.00 Build 0)  -->
<svg version="1.1" id="Layer_1" xmlns="http://www.w3.org/2000/svg" xmlns:xlink="http://www.w3.org/1999/xlink" x="0px" y="0px"
	 viewBox="0 0 257.7 68.3" style="enable-background:new 0 0 257.7 68.3;" xml:space="preserve">
<style type="text/css">
	.st0{fill-rule:evenodd;clip-rule:evenodd;fill:#005A8F;}
	.st1{fill-rule:evenodd;clip-rule:evenodd;fill:#6BCCDE;}
</style>
<g>
	<polygon class="st0" points="83.7,34.1 83.7,18.7 94.8,18.7 94.8,21.5 86.6,21.5 86.6,25.7 94.3,25.7 94.3,28.4 86.6,28.4 
		86.6,34.1 	"/>
	<path class="st0" d="M111.8,34.1h-11.6c0-5.1,0-10.3,0-15.4h11.6v2.8h-8.7V25h8.4v2.7h-8.4v3.5h8.7V34.1z"/>
	<polygon class="st0" points="120.5,18.7 120.5,31.4 128.5,31.4 128.5,34.1 117.6,34.1 117.6,18.7 	"/>
	<polygon class="st0" points="137,18.7 137,31.4 144.9,31.4 144.9,34.1 134,34.1 134,18.7 	"/>
	<path class="st0" d="M152.2,26.5c0.1,2.5,1.4,5.2,5.1,5.2c3.6,0,5-2.7,5.1-5.3c0-2.6-1.4-5.5-5.1-5.5
		C153.6,21,152.1,23.9,152.2,26.5L152.2,26.5z M165.2,26.5c0,4-2.5,8-7.9,8c-5.4,0-7.9-3.9-7.9-8c0-4.1,2.6-8.1,7.9-8.1
		C162.6,18.4,165.2,22.4,165.2,26.5z"/>
	<polygon class="st0" points="186.9,34.1 184.4,34.1 182.5,29.3 180.8,24.4 179.2,29.3 177.4,34.1 174.9,34.1 169.2,18.7 
		172.5,18.7 176.1,29.8 179.9,18.7 181.8,18.7 185.6,29.8 189.2,18.7 192.4,18.7 	"/>
	<path class="st0" d="M207.3,22.4c-0.5-0.9-2-1.7-3.7-1.7c-2.2,0-3.2,0.9-3.2,2.1c0,1.3,1.6,1.7,3.4,1.9c3.2,0.4,6.2,1.2,6.2,4.9
		c0,3.4-3,4.9-6.5,4.9c-3.2,0-5.6-1-6.7-3.8l2.4-1.3c0.7,1.7,2.5,2.4,4.3,2.4c1.8,0,3.6-0.6,3.6-2.3c0-1.5-1.5-2.1-3.6-2.3
		c-3.2-0.4-6.1-1.2-6.1-4.7c0-3.2,3.1-4.5,6-4.5c2.4,0,4.9,0.7,6.1,3.1L207.3,22.4z"/>
	<polygon class="st0" points="226.4,34.1 226.4,27.9 218.8,27.9 218.8,34.1 215.9,34.1 215.9,18.7 218.8,18.7 218.8,25.2 
		226.4,25.2 226.4,18.7 229.3,18.7 229.3,34.1 	"/>
	<rect x="235.6" y="18.7" class="st0" width="2.9" height="15.4"/>
	<path class="st0" d="M247.6,26.9h4.4c3.7,0,3.7-5.5,0-5.5h-4.4V26.9L247.6,26.9z M252,29.6h-4.4v4.5h-2.9V18.7c2.4,0,4.9,0,7.3,0
		C259.5,18.7,259.6,29.6,252,29.6z"/>
	<path class="st1" d="M30.7,23.1l-1.5,6.6c-3.3-0.8-8,0.4-8,0.4v-7H30.7L30.7,23.1z M35.1,0C15.7,0,0,15.7,0,35.1
		c0,15.3,9.8,28.4,23.5,33.2l0.1-0.1c6.8-10.5,8.8-23.6,8.8-34.9c0-14.2-2.8-25.4-2.8-25.4h11.1c0,0-1.6,6.2-2.4,15.1h12.3v7
		c0,0-12.7-2.9-12.8,3.3c0,11.3,2,24.3,8.8,34.8l0.1,0.2c13.7-4.8,23.5-17.8,23.5-33.2C70.3,15.7,54.5,0,35.1,0z"/>
	<path class="st0" d="M84.5,48.3c1.3,0,2.5,0,3.8,0c1.5,0,3.1,0.6,3.1,2.4c0,1.8-1.8,2.1-3.2,2.1h-3.7V48.3L84.5,48.3z M84.5,43.1
		h3.7c1.4,0,2.9,0.7,2.9,2.3c0,1.6-1.4,2-2.7,2h-3.8V43.1L84.5,43.1z M88.3,42.4c-1.6,0-3,0-4.6,0v11.2c1.6,0,3,0,4.6,0
		c1.9,0,4.1-0.6,4.1-2.9c0-1.3-0.8-2.4-2.2-2.8c1.1-0.4,1.8-1.2,1.8-2.4C91.9,43.3,90.1,42.4,88.3,42.4L88.3,42.4z M98.7,53.6V42.4
		h-0.8v11.2H98.7L98.7,53.6z M104.9,48.3c1.3,0,2.5,0,3.8,0c1.5,0,3.1,0.6,3.1,2.4c0,1.8-1.8,2.1-3.2,2.1h-3.7V48.3L104.9,48.3z
		 M104.9,43.1h3.7c1.4,0,2.9,0.7,2.9,2.3c0,1.6-1.4,2-2.7,2h-3.8V43.1L104.9,43.1z M108.7,42.4c-1.6,0-3,0-4.6,0v11.2
		c1.6,0,3,0,4.6,0c1.9,0,4.1-0.6,4.1-2.9c0-1.3-0.8-2.4-2.2-2.8c1.1-0.4,1.8-1.2,1.8-2.4C112.3,43.3,110.5,42.4,108.7,42.4
		L108.7,42.4z M117.7,42.4v11.2h7.1v-0.8h-6.3V42.4H117.7L117.7,42.4z M130.8,43.2h6.9v-0.8h-7.7v11.2h7.9v-0.8h-7.1v-4.4h6.5v-0.8
		h-6.5V43.2L130.8,43.2z M159.1,51.5c-1,0.9-2.2,1.4-3.5,1.4c-3.2,0-4.9-2.3-4.9-4.9c0-2.7,1.7-5,4.9-5c1.3,0,2.5,0.5,3.5,1.4
		l0.6-0.5c-1.1-1.1-2.6-1.7-4.1-1.7c-3.8,0-5.8,2.8-5.7,5.8c0,3,2,5.6,5.7,5.6c1.5,0,3-0.6,4.1-1.7L159.1,51.5L159.1,51.5z
		 M173.5,53.6V42.4h-0.9v5.3h-7.1v-5.3h-0.9v11.2h0.9v-5.1h7.1v5.1H173.5L173.5,53.6z M187.1,42.4v6.9c0,4.8-6.9,4.8-6.9,0v-6.9
		h-0.8v6.9c0,5.9,8.6,5.8,8.6,0v-6.9H187.1L187.1,42.4z M198.2,49.3c2.4,0,3.6-1.6,3.6-3.4c0-1.7-1.2-3.5-3.7-3.5
		c-1.6,0-3.3,0-4.9,0v11.2h0.9v-4.2h3l3.9,4.2h1.1L198.2,49.3L198.2,49.3z M194.1,43.2h4.1c1.9,0,2.7,1.4,2.7,2.7
		c0,1.6-0.9,2.7-2.8,2.7h-4V43.2L194.1,43.2z M215.2,51.5c-1,0.9-2.2,1.4-3.5,1.4c-3.2,0-4.9-2.3-4.9-4.9c0-2.7,1.7-5,4.9-5
		c1.3,0,2.5,0.5,3.5,1.4l0.6-0.5c-1.1-1.1-2.6-1.7-4.1-1.7c-3.8,0-5.8,2.8-5.7,5.8c0,3,2,5.6,5.7,5.6c1.5,0,3-0.6,4.1-1.7
		L215.2,51.5L215.2,51.5z M229.6,53.6V42.4h-0.9v5.3h-7.1v-5.3h-0.9v11.2h0.9v-5.1h7.1v5.1H229.6z"/>
</g>
</svg>
