<svg id="Layer_1" data-name="Layer 1" xmlns="http://www.w3.org/2000/svg" viewBox="0 0 257.67 68.32"><defs><style>.cls-1,.cls-2{fill:#fff;}.cls-1{fill-rule:evenodd;}</style></defs><title>logo-fellowship-bible-church</title><polygon class="cls-1" points="83.66 34.12 83.66 18.7 94.76 18.7 94.76 21.5 86.57 21.5 86.57 25.71 94.32 25.71 94.32 28.4 86.57 28.4 86.57 34.12 83.66 34.12"/><path class="cls-1" d="M118.48,39.46H106.92V24h11.56v2.82h-8.67v3.55h8.36V33.1h-8.36v3.49h8.67Z" transform="translate(-6.66 -5.34)"/><polygon class="cls-1" points="120.51 18.68 120.51 31.42 128.45 31.42 128.45 34.12 117.6 34.12 117.6 18.68 120.51 18.68"/><polygon class="cls-1" points="136.95 18.68 136.95 31.42 144.89 31.42 144.89 34.12 134.04 34.12 134.04 18.68 136.95 18.68"/><path class="cls-1" d="M158.86,31.89c.07,2.54,1.43,5.25,5.07,5.25s5-2.73,5.05-5.27-1.41-5.51-5.05-5.51-5.14,2.93-5.07,5.54Zm13-.07c0,4-2.49,8-7.92,8s-7.94-3.9-7.94-8,2.6-8.14,7.94-8.14S171.9,27.79,171.86,31.82Z" transform="translate(-6.66 -5.34)"/><polygon class="cls-1" points="186.86 34.12 184.39 34.12 182.47 29.26 180.84 24.39 179.23 29.31 177.35 34.12 174.88 34.12 169.22 18.68 172.48 18.68 176.12 29.81 179.87 18.68 181.76 18.68 185.63 29.81 189.15 18.68 192.42 18.68 186.86 34.12"/><path class="cls-1" d="M213.94,27.74A4.42,4.42,0,0,0,210.28,26c-2.16,0-3.2.9-3.2,2.05,0,1.35,1.59,1.72,3.44,1.94,3.22.4,6.22,1.24,6.22,4.92,0,3.44-3,4.92-6.48,4.92-3.15,0-5.58-1-6.73-3.79L206,34.8c.69,1.7,2.47,2.45,4.35,2.45s3.55-.64,3.55-2.32c0-1.46-1.52-2.05-3.57-2.27-3.15-.38-6.06-1.21-6.06-4.68,0-3.18,3.13-4.48,6-4.5,2.4,0,4.9.68,6.07,3.07Z" transform="translate(-6.66 -5.34)"/><polygon class="cls-1" points="226.38 34.14 226.38 27.89 218.8 27.89 218.8 34.14 215.89 34.14 215.89 18.7 218.8 18.7 218.8 25.2 226.38 25.2 226.38 18.7 229.28 18.7 229.28 34.14 226.38 34.14"/><rect class="cls-2" x="235.57" y="18.68" width="2.89" height="15.44"/><path class="cls-1" d="M254.3,32.24h4.37a2.74,2.74,0,1,0,0-5.47H254.3v5.47Zm4.37,2.67H254.3v4.54h-2.91V24l7.28,0C266.21,24,266.23,34.91,258.67,34.91Z" transform="translate(-6.66 -5.34)"/><path class="cls-1" d="M37.33,28.4,35.87,35c-3.32-.84-8,.37-8,.37v-7ZM41.8,5.34A35.15,35.15,0,0,0,30.2,73.66l.07-.11c6.83-10.49,8.8-23.6,8.8-34.91a115.86,115.86,0,0,0-2.8-25.36H47.34A105.67,105.67,0,0,0,45,28.4h12.3v7S44.52,32.46,44.5,38.64c0,11.27,2,24.33,8.77,34.79l.14.22A35.15,35.15,0,0,0,41.8,5.34Z" transform="translate(-6.66 -5.34)"/><path class="cls-1" d="M91.2,53.61H95c1.5,0,3.08.62,3.1,2.36s-1.8,2.11-3.21,2.11H91.2V53.61Zm0-5.15h3.72c1.39,0,2.86.69,2.86,2.32s-1.4,2-2.74,2H91.2V48.46Zm3.72-.73H90.34V58.91h4.58c1.92,0,4.05-.62,4.05-2.92a2.86,2.86,0,0,0-2.2-2.81,2.46,2.46,0,0,0,1.82-2.4c0-2.13-1.79-3.06-3.67-3.06Zm10.41,11.18V47.72h-.85V58.91Zm6.29-5.3h3.83c1.5,0,3.08.62,3.1,2.36s-1.8,2.11-3.21,2.11h-3.72V53.61Zm0-5.15h3.72c1.39,0,2.86.69,2.86,2.32s-1.4,2-2.74,2h-3.83V48.46Zm3.72-.73h-4.58V58.91h4.58c1.91,0,4.05-.62,4.05-2.92a2.86,2.86,0,0,0-2.2-2.81,2.46,2.46,0,0,0,1.82-2.4c0-2.13-1.79-3.06-3.67-3.06Zm9.06,0V58.91h7.15v-.81h-6.29V47.72Zm13.05.81h6.86v-.81H136.6V58.91h7.9v-.83h-7.05v-4.4H144v-.78h-6.54V48.54Zm28.29,8.28a5,5,0,0,1-3.49,1.42,4.66,4.66,0,0,1-4.91-4.88,4.66,4.66,0,0,1,4.91-5,4.89,4.89,0,0,1,3.48,1.42l.59-.51a5.75,5.75,0,0,0-4.07-1.67,5.47,5.47,0,0,0-5.74,5.78A5.41,5.41,0,0,0,162.25,59a5.75,5.75,0,0,0,4.07-1.68l-.57-.54Zm14.39,2.09V47.72h-.86v5.33h-7.12V47.72h-.86V58.91h.86V53.83h7.12v5.07Zm13.6-11.18v6.94a3.43,3.43,0,1,1-6.86,0V47.72H186v6.94c0,5.86,8.55,5.84,8.55,0V47.72Zm11.12,6.91a3.3,3.3,0,0,0,3.62-3.42,3.46,3.46,0,0,0-3.67-3.49h-4.91V58.91h.86V54.68h3l3.86,4.23h1.13l-3.94-4.28Zm-4.1-6.11h4.05a2.58,2.58,0,0,1,2.73,2.67,2.5,2.5,0,0,1-2.82,2.67h-4V48.52Zm21.08,8.3a5,5,0,0,1-3.49,1.42,4.66,4.66,0,0,1-4.91-4.88,4.66,4.66,0,0,1,4.91-5,4.89,4.89,0,0,1,3.48,1.42l.59-.51a5.75,5.75,0,0,0-4.07-1.67,5.47,5.47,0,0,0-5.74,5.78A5.41,5.41,0,0,0,218.34,59a5.75,5.75,0,0,0,4.07-1.68l-.57-.54Zm14.39,2.09V47.72h-.86v5.33h-7.12V47.72h-.86V58.91h.86V53.83h7.12v5.07Z" transform="translate(-6.66 -5.34)"/></svg>